<?xml version="1.0" encoding="utf-8"?>
<!-- Svg Vector Icons : http://www.onlinewebfonts.com/icon -->
<!DOCTYPE svg PUBLIC "-//W3C//DTD SVG 1.1//EN" "http://www.w3.org/Graphics/SVG/1.1/DTD/svg11.dtd">
<svg version="1.1" xmlns="http://www.w3.org/2000/svg" xmlns:xlink="http://www.w3.org/1999/xlink" x="0px" y="0px" viewBox="0 0 1000 1000" enable-background="new 0 0 1000 1000" xml:space="preserve">
<metadata> Svg Vector Icons : http://www.onlinewebfonts.com/icon </metadata>
<g><path d="M404.9,718.8c-27.8,10.7-83.4,26.4-148.2,26.4c-72.7,0-132.6-18.5-179.6-63.4c-41.3-39.9-67-104.1-67-178.9c0-143.3,99.1-248,260.1-248c55.6,0,99.8,12.1,120.4,22.1l-15.7,50.6c-25.7-12.1-57.7-20.7-106.2-20.7c-116.9,0-193.1,72.7-193.1,193.1c0,121.9,72.7,193.9,185.3,193.9c40.6,0,68.4-5.7,82.7-12.8V537.8h-96.9v-49.9h158.2L404.9,718.8L404.9,718.8z"/><path d="M496.8,488.6c0-36.4-1.4-64.9-2.9-93.4h54.9l2.9,55.6h2.1c19.2-32.8,51.3-63.4,109-63.4c46.3,0,82,28.5,96.9,69.1h1.4c10.7-20,24.9-34.2,39.2-44.9c20.7-15.7,42.8-24.2,75.5-24.2c46.3,0,114,29.9,114,149.7v203.1h-61.3V544.9c0-67-24.9-106.2-74.8-106.2c-36.3,0-63.4,26.4-74.8,56.3c-2.9,9.3-5,20.7-5,31.4v213.8h-61.3V533.5c0-55.6-24.2-94.8-72-94.8c-38.5,0-67.7,31.4-77.7,62.7c-3.6,9.3-5,20-5,30.6v208.1h-61.3V488.6z"/></g>
</svg>